<svg id="Layer_1" data-name="Layer 1" xmlns="http://www.w3.org/2000/svg" xmlns:xlink="http://www.w3.org/1999/xlink" viewBox="0 0 1417.51 1447.86"><defs><style>.cls-1{fill:url(#linear-gradient);}.cls-2{fill:url(#linear-gradient-2);}.cls-3{fill:url(#linear-gradient-3);}.cls-4{fill:url(#linear-gradient-4);}.cls-5{fill:url(#linear-gradient-5);}.cls-6{fill:url(#linear-gradient-6);}.cls-7{fill:url(#linear-gradient-7);}.cls-8{fill:url(#linear-gradient-8);}.cls-9{fill:url(#linear-gradient-9);}.cls-10{fill:url(#linear-gradient-10);}.cls-11{fill:url(#linear-gradient-11);}.cls-12{fill:url(#linear-gradient-12);}.cls-13{fill:url(#linear-gradient-13);}.cls-14{fill:url(#linear-gradient-14);}.cls-15{fill:url(#linear-gradient-15);}</style><linearGradient id="linear-gradient" x1="93.02" y1="1193.76" x2="549.36" y2="1193.76" gradientUnits="userSpaceOnUse"><stop offset="0" stop-color="#d49d36"/><stop offset="1" stop-color="#e9b224"/></linearGradient><linearGradient id="linear-gradient-2" x1="145.53" y1="746.66" x2="529.89" y2="746.66" xlink:href="#linear-gradient"/><linearGradient id="linear-gradient-3" x1="41.24" y1="719.86" x2="243.04" y2="719.86" xlink:href="#linear-gradient"/><linearGradient id="linear-gradient-4" x1="314.01" y1="775.73" x2="448.45" y2="775.73" xlink:href="#linear-gradient"/><linearGradient id="linear-gradient-5" x1="412.57" y1="1025.43" x2="508.36" y2="1025.43" xlink:href="#linear-gradient"/><linearGradient id="linear-gradient-6" x1="244.44" y1="557.85" x2="356.45" y2="557.85" xlink:href="#linear-gradient"/><linearGradient id="linear-gradient-7" x1="57.02" y1="933.25" x2="256.1" y2="933.25" xlink:href="#linear-gradient"/><linearGradient id="linear-gradient-8" x1="424.04" y1="760.53" x2="1458.76" y2="760.53" xlink:href="#linear-gradient"/><linearGradient id="linear-gradient-9" x1="802.64" y1="980.86" x2="1226.32" y2="980.86" xlink:href="#linear-gradient"/><linearGradient id="linear-gradient-10" x1="347.34" y1="180.26" x2="610.85" y2="180.26" xlink:href="#linear-gradient"/><linearGradient id="linear-gradient-11" x1="637.13" y1="659.56" x2="779.25" y2="659.56" xlink:href="#linear-gradient"/><linearGradient id="linear-gradient-12" x1="1060.63" y1="205.86" x2="1388.33" y2="205.86" xlink:href="#linear-gradient"/><linearGradient id="linear-gradient-13" x1="983.36" y1="479.39" x2="1152.4" y2="479.39" xlink:href="#linear-gradient"/><linearGradient id="linear-gradient-14" x1="995.45" y1="579.89" x2="1101.95" y2="579.89" xlink:href="#linear-gradient"/><linearGradient id="linear-gradient-15" x1="1218.48" y1="739.02" x2="1219.57" y2="739.02" xlink:href="#linear-gradient"/></defs><title>ICON</title><path class="cls-1" d="M531.67,1327.36c-62-73.3-133.37-157.58-219.2-214-42.57-28-113.87-65.72-219.45-83A565.5,565.5,0,0,0,173.28,1184c29.76,40.25,68.79,93.38,141.55,131.72,44.33,23.35,94.2,37.37,149.66,41.24,25.39,1.78,51.36-4.79,84.87-8.33C545.37,1343.74,539.24,1336.31,531.67,1327.36Z" transform="translate(-41.24 -26.07)"/><path class="cls-2" d="M217.68,619.29c19,174,70.71,336.63,165.92,484.4,38.14,59.2,85,110.06,146.29,151.56-39.1-44.18-81.16-82.43-112-128.21-130.46-193.37-206-403.2-183.91-641.44,2.62-28.24,34.23-113,5.19-209a302.21,302.21,0,0,0-14.62-38.59A198.43,198.43,0,0,0,205,255.51s-4.93,5-9.49,10.42c-5.73,6.75-60.18,88.38-48.29,185.41,5.12,41.83,22.28,83.5,53.7,125C209.91,588.19,216.06,604.44,217.68,619.29Z" transform="translate(-41.24 -26.07)"/><path class="cls-3" d="M243,886.46c-3.57-107.12-121.8-305.88-201.8-333.21,4.41,48.27,6.73,94,13.16,139.06,7.79,54.64,32,102.56,70.69,142.17C157.13,867.28,196.48,884.15,243,886.46Z" transform="translate(-41.24 -26.07)"/><path class="cls-4" d="M326.13,918.47C427.13,879,469,714.72,438.86,633,349.17,650.68,286.52,827.47,326.13,918.47Z" transform="translate(-41.24 -26.07)"/><path class="cls-5" d="M467.34,1166c48.23-68.67,51.62-216.33,22.18-281.22C398.74,923.51,384.4,1093.91,467.34,1166Z" transform="translate(-41.24 -26.07)"/><path class="cls-6" d="M356.45,406.75c-56.91,23.72-84.91,68-99.24,120.59C241.29,585.78,236.72,645.19,264.4,709,337.69,616.75,350.33,515.31,356.45,406.75Z" transform="translate(-41.24 -26.07)"/><path class="cls-7" d="M256.1,953.06c-60.42-55.33-132.64-39.58-199.08-47C99.8,949.25,202.18,973.57,256.1,953.06Z" transform="translate(-41.24 -26.07)"/><path class="cls-8" d="M1446.63,872.67c-3.19,9.38-6.57,18.7-9.53,28.14-48.32,154.12-131.32,282.66-270.61,370.6-18.37,11.59-29,10-46.5-3.36-50.27-38.22-103.14-73-155.43-108.51-8-5.43-18.36-7.37-27.63-10.92l-4.62,7c41.5,60.65,110.37,93.84,158.31,147.5-2.7,3.78-3.55,5.93-5.13,7a34.43,34.43,0,0,1-8.53,4c-83.84,26.67-168.46,29-253,5-181-51.45-270.9-221.34-211.63-399.64,18.32-55.11,39-109.43,58-164.34,7.67-22.21,1.17-40.43-10.54-62-21.79-40.13-38.54-83.74-51.4-127.65-6.93-23.67,4.18-49.54,29.24-61.27,26.59-12.44,46.56,3.59,64.16,21.66,35.5,36.43,36.92,36.45,67.06-4.18,5-6.79,9.9-13.72,15.18-20.31,60.61-75.55,113.39-160.94,227-165.12,24-.88,28-25.55,16.35-41.1-16.48-22.06-38.45-40.58-60.25-57.88-13-10.3-30.14-15.36-45.42-22.77q2.26-5.21,4.54-10.4c46.06,17.24,92.83,32.81,138,52.08,92,39.23,139.57,111.52,131.75,210.09-6.7,84.35.5,159,66.53,219.78,16.58,15.26,9.81,33.48-11,43-10.1,4.61-21.19,7.06-31.89,10.38.4,4.61.8,9.23,1.21,14,69.58-13.76,85.31-46.29,35.68-102.49-3.48-3.94-6.31-8.47-9.56-12.63-29.41-37.66-40.89-79-34.1-127.45,5.54-39.52,4.74-80,5.25-120.12,1.61-126.14-55.5-219.31-164.08-280C943.52,49,825.69,31.49,701.66,61.4c-111.8,27-178.7,98.34-207.94,207.73-2.53,9.46-5.64,18.77-8.48,28.15-8.95-62.2,19.45-110.65,55.54-156.71-48.22,30.5-79.14,73.7-95.87,126C408.6,380,420.14,489.9,475.92,594.76c21.82,41,48.31,79.56,69.46,120.88,35.4,69.12,50.8,140.76,18.65,216.53-7.78,18.33-12,38.31-16.69,57.81-38.55,159.11,46.26,354.09,189.83,432.57,132.32,72.33,266.73,64.6,398.43-.09,140.43-69,221.39-190.15,270.33-333.3,23.6-69,35.58-142.05,52.83-213.27Z" transform="translate(-41.24 -26.07)"/><path class="cls-9" d="M1226.31,782.94c.21-.76-3-2.44-2.93-2.39-14.56,49.27-72.62,35.94-102.4,71.15,16.73-1.58,31.21-2.25,42.79-2.51,23.32-.52,32.46.64,39.25,7.3a28,28,0,0,1,7,13c2,10-26.18,26-43.23,41.8,3.49,3.16,12.52,7.56,15.09,14.4,5.59,14.86,16,37.2,9.8,45.23-12,15.5-33.23,30.92-52,32.81-75.88,7.63-149-11.49-221.08-33.17-46.15-13.88-89.62-32.74-115.94-78.34,23.65,98.42,43.58,197.08,85,289,7-32.34,6.87-64.45,14.82-94.43,16.42-62,45.6-85.86,106.2-79.35,40.89,4.4,82.21,7.6,123.27,7,63.74-.93,84.6-32,66.67-92.2-2-6.63-1.47-17.61,2.7-21.89C1234.5,866.15,1215.84,821.48,1226.31,782.94Z" transform="translate(-41.24 -26.07)"/><path class="cls-10" d="M610.85,26.07c-131.69,4-300.8,205.43-256.23,308.39C393.88,192.91,480.32,91.22,610.85,26.07Z" transform="translate(-41.24 -26.07)"/><path class="cls-11" d="M666.89,593.83c4.92,12,5.88,61.6,57.32,135a525.4,525.4,0,0,0,55,66.16q-4-11.09-8-22.16c-7.54-20.92-15.49-41.2-20.36-53.22-14.09-34.82-31.29-69.31-41.66-89.44l-7.65-22.51c1.24-3.77,13.84-43.71-7.24-68.26a52.71,52.71,0,0,0-16.53-12.61c-11.17-5.32-27-.88-40.71-.88,37.59,11.68,37.49,11.66,29.84,52.28C666,583.27,665.06,589.35,666.89,593.83Z" transform="translate(-41.24 -26.07)"/><path class="cls-12" d="M1388.33,357.42c-78.27-134.76-178.48-245.64-327.7-303.13C1199.13,123.46,1299.26,234.42,1388.33,357.42Z" transform="translate(-41.24 -26.07)"/><path class="cls-13" d="M1124,456.35c-44-15.78-113.8,8.44-140.66,50.93,54.24-35.84,107.61-45.41,167.71-9.82C1157.33,469,1140.27,462.18,1124,456.35Z" transform="translate(-41.24 -26.07)"/><path class="cls-14" d="M1102,552.23,995.45,575.9l100.72,31.65a62,62,0,0,1,5.78-55.32Z" transform="translate(-41.24 -26.07)"/><path class="cls-15" d="M1219.49,738.36h0c-.33.45-.67.86-1,1.29l0,0,.49-.66-.49.66,1.07-.32c0-.34,0-.67-.08-1Z" transform="translate(-41.24 -26.07)"/></svg>