<?xml version="1.0" encoding="utf-8"?>
<!-- Generator: Adobe Illustrator 24.0.2, SVG Export Plug-In . SVG Version: 6.00 Build 0)  -->
<svg version="1.1" id="Layer_1" xmlns="http://www.w3.org/2000/svg" xmlns:xlink="http://www.w3.org/1999/xlink" x="0px" y="0px"
	 viewBox="0 0 100 100" style="enable-background:new 0 0 100 100;" xml:space="preserve">
<style type="text/css">
	.st0{fill:url(#SVGID_1_);}
	.st1{fill:url(#SVGID_2_);}
	.st2{fill:url(#SVGID_3_);}
	.st3{fill:url(#SVGID_4_);}
	.st4{fill:url(#SVGID_5_);}
	.st5{fill:url(#SVGID_6_);}
	.st6{fill:url(#SVGID_7_);}
	.st7{fill:url(#SVGID_8_);}
	.st8{fill:url(#SVGID_9_);}
	.st9{fill:url(#SVGID_10_);}
	.st10{fill:none;}
	.st11{fill:url(#SVGID_11_);}
	.st12{fill:url(#SVGID_12_);}
	.st13{fill:url(#SVGID_13_);}
	.st14{fill:url(#SVGID_14_);}
	.st15{fill:url(#SVGID_15_);}
	.st16{fill:url(#SVGID_16_);}
	.st17{fill:url(#SVGID_17_);}
	.st18{fill:url(#SVGID_18_);}
	.st19{fill:url(#SVGID_19_);}
	.st20{fill:url(#SVGID_20_);}
	.st21{fill:url(#SVGID_21_);}
	.st22{fill:url(#SVGID_22_);}
</style>
<g>
	<g>
		<g>
			<linearGradient id="SVGID_1_" gradientUnits="userSpaceOnUse" x1="13.8921" y1="56.955" x2="27.5957" y2="56.955">
				<stop  offset="0" style="stop-color:#6A2245"/>
				<stop  offset="1" style="stop-color:#672242"/>
			</linearGradient>
			<path class="st0" d="M27.52,58.17h-9.64c0.46,1.45,1.7,2.33,3.32,2.33c1.47,0,2.64-0.69,3.25-1.45l2.49,2.16
				c-1.37,1.55-3.45,2.51-5.84,2.51c-4.11,0-7.21-2.94-7.21-6.85c0-3.81,2.97-6.7,6.9-6.7c3.88,0,6.8,2.89,6.8,6.83
				C27.6,57.36,27.57,57.84,27.52,58.17z M17.85,55.71h5.81c-0.41-1.45-1.52-2.33-2.92-2.33S18.23,54.29,17.85,55.71z"/>
			<linearGradient id="SVGID_2_" gradientUnits="userSpaceOnUse" x1="28.1757" y1="54.2904" x2="31.8807" y2="54.2904">
				<stop  offset="0" style="stop-color:#6A2245"/>
				<stop  offset="1" style="stop-color:#672242"/>
			</linearGradient>
			<path class="st1" d="M28.18,45.15h3.71v18.27h-3.71V45.15z"/>
			<linearGradient id="SVGID_3_" gradientUnits="userSpaceOnUse" x1="32.7141" y1="46.5632" x2="37.3073" y2="46.5632">
				<stop  offset="0" style="stop-color:#D49D36"/>
				<stop  offset="1" style="stop-color:#E9B224"/>
			</linearGradient>
			<path class="st2" d="M32.71,46.55c0-1.29,0.99-2.26,2.28-2.26c1.32,0,2.31,0.96,2.31,2.26c0,1.32-0.99,2.28-2.31,2.28
				C33.7,48.83,32.71,47.87,32.71,46.55z"/>
			<linearGradient id="SVGID_4_" gradientUnits="userSpaceOnUse" x1="33.1455" y1="56.955" x2="36.8505" y2="56.955">
				<stop  offset="0" style="stop-color:#6A2245"/>
				<stop  offset="1" style="stop-color:#672242"/>
			</linearGradient>
			<rect x="33.15" y="50.48" class="st3" width="3.71" height="12.94"/>
			<linearGradient id="SVGID_5_" gradientUnits="userSpaceOnUse" x1="37.4555" y1="58.3508" x2="51.3114" y2="58.3508">
				<stop  offset="0" style="stop-color:#6A2245"/>
				<stop  offset="1" style="stop-color:#672242"/>
			</linearGradient>
			<path class="st4" d="M51.31,67.23l-3.81,1.04c-0.1-0.84-0.81-1.4-1.85-1.4h-4.03c-2.51,0-4.16-1.45-4.16-3.6
				c0-1.37,0.69-2.69,1.78-3.35c-1.07-1.02-1.7-2.44-1.7-4.03c0-3.27,2.61-5.71,6.12-5.71c0.99,0,1.9,0.2,2.72,0.53
				c0.38-1.4,1.67-2.28,3.45-2.28h1.09v3.43h-0.91c-0.61,0-1.09,0.3-1.22,0.79c0.63,0.91,1.02,2,1.02,3.25
				c0,3.27-2.64,5.71-6.14,5.71c-0.66,0-1.29-0.08-1.9-0.25c-0.38,0.25-0.58,0.61-0.58,0.99c0,0.58,0.48,0.96,1.17,0.96h4.03
				C48.98,63.3,50.83,64.75,51.31,67.23z M41.34,55.89c0,1.27,0.99,2.21,2.31,2.21c1.32,0,2.33-0.94,2.33-2.21
				c0-1.27-1.02-2.21-2.33-2.21C42.3,53.68,41.34,54.62,41.34,55.89z"/>
			<linearGradient id="SVGID_6_" gradientUnits="userSpaceOnUse" x1="51.539" y1="54.2904" x2="64.1261" y2="54.2904">
				<stop  offset="0" style="stop-color:#6A2245"/>
				<stop  offset="1" style="stop-color:#672242"/>
			</linearGradient>
			<path class="st5" d="M64.13,55.1v8.32h-3.71v-7.08c0-1.57-0.99-2.59-2.49-2.59c-1.6,0-2.69,1.04-2.69,2.64v7.03h-3.71V45.15h3.71
				v6.7c1.02-1.09,2.33-1.67,3.93-1.67C62.15,50.18,64.13,52.13,64.13,55.1z"/>
			<linearGradient id="SVGID_7_" gradientUnits="userSpaceOnUse" x1="64.608" y1="55.5085" x2="73.5915" y2="55.5085">
				<stop  offset="0" style="stop-color:#6A2245"/>
				<stop  offset="1" style="stop-color:#672242"/>
			</linearGradient>
			<path class="st6" d="M70.27,53.86v4.75c0,0.99,0.53,1.55,1.62,1.55c0.66,0,1.22-0.2,1.7-0.46v3.48c-0.76,0.38-1.5,0.56-2.49,0.56
				c-3.15,0-4.54-1.85-4.54-4.52v-5.35h-1.95v-3.38h1.95v-3.2h3.71v3.2h3.32v3.38H70.27z"/>
			<linearGradient id="SVGID_8_" gradientUnits="userSpaceOnUse" x1="74.0481" y1="54.1382" x2="83.0314" y2="54.1382">
				<stop  offset="0" style="stop-color:#6A2245"/>
				<stop  offset="1" style="stop-color:#672242"/>
			</linearGradient>
			<path class="st7" d="M79.71,49.77v0.71h3.07v3.38h-3.07v9.57H76v-9.57h-1.95v-3.38H76v-0.96c0-2.74,1.4-4.67,4.57-4.67
				c0.96,0,1.73,0.18,2.46,0.56v3.27c-0.48-0.3-1.02-0.46-1.62-0.46C80.27,48.23,79.71,48.78,79.71,49.77z"/>
			<linearGradient id="SVGID_9_" gradientUnits="userSpaceOnUse" x1="83.3842" y1="57.1073" x2="95.616" y2="57.1073">
				<stop  offset="0" style="stop-color:#6A2245"/>
				<stop  offset="1" style="stop-color:#672242"/>
			</linearGradient>
			<path class="st8" d="M83.38,58.25v-7.77h3.71v7.26c0,1.45,0.96,2.41,2.41,2.41c1.45,0,2.41-0.96,2.41-2.41v-7.26h3.71v7.77
				c0,3.3-2.41,5.48-6.12,5.48C85.82,63.73,83.38,61.55,83.38,58.25z"/>
			<linearGradient id="SVGID_10_" gradientUnits="userSpaceOnUse" x1="96.295" y1="54.2904" x2="100" y2="54.2904">
				<stop  offset="0" style="stop-color:#6A2245"/>
				<stop  offset="1" style="stop-color:#672242"/>
			</linearGradient>
			<path class="st9" d="M96.29,45.15H100v18.27h-3.71V45.15z"/>
			<path class="st10" d="M6.8,49.49H3.93v10.1H6.8c2.87,0,5-2.18,5-5.05S9.67,49.49,6.8,49.49z"/>
			<linearGradient id="SVGID_11_" gradientUnits="userSpaceOnUse" x1="0" y1="54.5436" x2="15.8352" y2="54.5436">
				<stop  offset="0" style="stop-color:#6A2245"/>
				<stop  offset="1" style="stop-color:#672242"/>
			</linearGradient>
			<path class="st11" d="M15.45,51.9c-1.09-3.62-4.4-6.11-8.55-6.11H0V63.3h6.9c2.96,0,5.49-1.26,7.09-3.3
				c-0.47-0.93-0.74-1.98-0.74-3.12C13.25,54.86,14.09,53.11,15.45,51.9z M6.8,59.59H3.93v-10.1H6.8c2.87,0,5,2.18,5,5.05
				S9.67,59.59,6.8,59.59z"/>
		</g>
		<g>
			<linearGradient id="SVGID_12_" gradientUnits="userSpaceOnUse" x1="67.7428" y1="66.7464" x2="70.966" y2="66.7464">
				<stop  offset="0" style="stop-color:#6A2245"/>
				<stop  offset="1" style="stop-color:#672242"/>
			</linearGradient>
			<path class="st12" d="M67.74,66.75c0-0.98,0.74-1.72,1.73-1.72c0.66,0,1.2,0.33,1.5,0.83l-0.23,0.13
				c-0.25-0.43-0.72-0.71-1.27-0.71c-0.84,0-1.46,0.63-1.46,1.47c0,0.84,0.63,1.47,1.46,1.47c0.55,0,1.02-0.28,1.27-0.71l0.23,0.13
				c-0.3,0.5-0.84,0.83-1.5,0.83C68.48,68.47,67.74,67.73,67.74,66.75z"/>
			<linearGradient id="SVGID_13_" gradientUnits="userSpaceOnUse" x1="71.533" y1="66.7464" x2="74.9947" y2="66.7464">
				<stop  offset="0" style="stop-color:#6A2245"/>
				<stop  offset="1" style="stop-color:#672242"/>
			</linearGradient>
			<path class="st13" d="M71.53,66.75c0-0.98,0.74-1.72,1.73-1.72c0.99,0,1.73,0.74,1.73,1.72c0,0.98-0.75,1.72-1.73,1.72
				C72.27,68.47,71.53,67.73,71.53,66.75z M74.72,66.75c0-0.84-0.63-1.47-1.46-1.47c-0.84,0-1.46,0.63-1.46,1.47
				c0,0.84,0.63,1.47,1.46,1.47C74.1,68.22,74.72,67.58,74.72,66.75z"/>
			<linearGradient id="SVGID_14_" gradientUnits="userSpaceOnUse" x1="75.5617" y1="66.7464" x2="78.0887" y2="66.7464">
				<stop  offset="0" style="stop-color:#6A2245"/>
				<stop  offset="1" style="stop-color:#672242"/>
			</linearGradient>
			<path class="st14" d="M75.56,67.94l0.15-0.19c0.24,0.3,0.64,0.48,1.12,0.48c0.56,0,0.99-0.27,0.99-0.68
				c0-0.45-0.47-0.57-0.98-0.7c-0.57-0.14-1.17-0.31-1.17-0.93c0-0.58,0.54-0.9,1.17-0.9c0.48,0,0.88,0.19,1.13,0.46l-0.15,0.19
				c-0.22-0.26-0.57-0.42-0.98-0.42c-0.5,0-0.9,0.25-0.9,0.63c0,0.46,0.48,0.59,0.99,0.72c0.56,0.14,1.15,0.29,1.15,0.92
				c0,0.59-0.55,0.94-1.25,0.94C76.3,68.47,75.85,68.25,75.56,67.94z"/>
			<linearGradient id="SVGID_15_" gradientUnits="userSpaceOnUse" x1="78.8941" y1="66.7078" x2="84.0449" y2="66.7078">
				<stop  offset="0" style="stop-color:#6A2245"/>
				<stop  offset="1" style="stop-color:#672242"/>
			</linearGradient>
			<path class="st15" d="M84.04,66.28v2.11h-0.26v-2.04c0-0.64-0.42-1.07-1.07-1.07c-0.67,0-1.12,0.43-1.12,1.08v2.03h-0.26v-2.04
				c0-0.64-0.43-1.07-1.08-1.07c-0.67,0-1.12,0.43-1.12,1.08v2.03h-0.26V65.1h0.26v0.59c0.21-0.43,0.64-0.67,1.19-0.67
				c0.59,0,1.03,0.3,1.19,0.79c0.19-0.5,0.64-0.79,1.25-0.79C83.54,65.03,84.04,65.52,84.04,66.28z"/>
			<linearGradient id="SVGID_16_" gradientUnits="userSpaceOnUse" x1="84.8374" y1="66.7464" x2="88.2475" y2="66.7464">
				<stop  offset="0" style="stop-color:#6A2245"/>
				<stop  offset="1" style="stop-color:#672242"/>
			</linearGradient>
			<path class="st16" d="M88.24,66.86h-3.13c0.05,0.79,0.68,1.37,1.5,1.37c0.57,0,1.06-0.27,1.32-0.68l0.19,0.15
				c-0.31,0.48-0.86,0.78-1.51,0.78c-1.01,0-1.77-0.74-1.77-1.73c0-0.97,0.73-1.71,1.7-1.71c0.97,0,1.71,0.74,1.71,1.72
				C88.25,66.79,88.24,66.82,88.24,66.86z M85.11,66.62h2.87c-0.06-0.78-0.66-1.35-1.44-1.35C85.76,65.27,85.16,65.84,85.11,66.62z"
				/>
			<linearGradient id="SVGID_17_" gradientUnits="userSpaceOnUse" x1="88.5374" y1="66.3177" x2="90.5551" y2="66.3177">
				<stop  offset="0" style="stop-color:#6A2245"/>
				<stop  offset="1" style="stop-color:#672242"/>
			</linearGradient>
			<path class="st17" d="M89.47,65.34v2.28c0,0.44,0.23,0.59,0.61,0.59c0.19,0,0.34-0.05,0.48-0.12v0.24
				c-0.15,0.08-0.3,0.13-0.52,0.13c-0.52,0-0.83-0.25-0.83-0.81v-2.32h-0.67V65.1h0.67v-0.93h0.26v0.93h1.09v0.24H89.47z"/>
			<linearGradient id="SVGID_18_" gradientUnits="userSpaceOnUse" x1="91.2446" y1="66.1179" x2="91.6636" y2="66.1179">
				<stop  offset="0" style="stop-color:#6A2245"/>
				<stop  offset="1" style="stop-color:#672242"/>
			</linearGradient>
			<path class="st18" d="M91.24,64.05c0-0.12,0.1-0.21,0.21-0.21c0.12,0,0.21,0.09,0.21,0.21c0,0.12-0.09,0.21-0.21,0.21
				C91.34,64.26,91.24,64.17,91.24,64.05z M91.33,65.1h0.26v3.29h-0.26V65.1z"/>
			<linearGradient id="SVGID_19_" gradientUnits="userSpaceOnUse" x1="92.4112" y1="66.7464" x2="95.6344" y2="66.7464">
				<stop  offset="0" style="stop-color:#6A2245"/>
				<stop  offset="1" style="stop-color:#672242"/>
			</linearGradient>
			<path class="st19" d="M92.41,66.75c0-0.98,0.74-1.72,1.73-1.72c0.66,0,1.2,0.33,1.5,0.83l-0.23,0.13
				c-0.25-0.43-0.72-0.71-1.27-0.71c-0.84,0-1.46,0.63-1.46,1.47c0,0.84,0.63,1.47,1.46,1.47c0.55,0,1.02-0.28,1.27-0.71l0.23,0.13
				c-0.3,0.5-0.84,0.83-1.5,0.83C93.15,68.47,92.41,67.73,92.41,66.75z"/>
			<linearGradient id="SVGID_20_" gradientUnits="userSpaceOnUse" x1="96.1821" y1="66.7464" x2="98.7091" y2="66.7464">
				<stop  offset="0" style="stop-color:#6A2245"/>
				<stop  offset="1" style="stop-color:#672242"/>
			</linearGradient>
			<path class="st20" d="M96.18,67.94l0.15-0.19c0.24,0.3,0.64,0.48,1.12,0.48c0.56,0,0.99-0.27,0.99-0.68
				c0-0.45-0.47-0.57-0.98-0.7c-0.57-0.14-1.17-0.31-1.17-0.93c0-0.58,0.54-0.9,1.17-0.9c0.48,0,0.88,0.19,1.13,0.46l-0.15,0.19
				c-0.22-0.26-0.57-0.42-0.98-0.42c-0.5,0-0.9,0.25-0.9,0.63c0,0.46,0.48,0.59,0.99,0.72c0.56,0.14,1.15,0.29,1.15,0.92
				c0,0.59-0.55,0.94-1.25,0.94C96.92,68.47,96.47,68.25,96.18,67.94z"/>
		</g>
	</g>
	<g>
		<linearGradient id="SVGID_21_" gradientUnits="userSpaceOnUse" x1="34.1295" y1="27.147" x2="53.2029" y2="27.147">
			<stop  offset="0" style="stop-color:#D29C35"/>
			<stop  offset="1" style="stop-color:#E8B223"/>
		</linearGradient>
		<path class="st21" d="M34.13,39.31c2.26-4.04,6.37-7.98,12.82-6.69c0.02-0.05,0.04-0.11,0.05-0.16c-0.94-0.29-1.87-0.66-2.83-0.85
			c-0.92-0.18-1.88-0.21-2.83-0.22c-0.45-0.01-0.72-0.15-0.98-0.48c-1.37-1.74-2.08-3.74-2.26-5.92c-0.28-3.36-0.77-6.68-1.77-9.9
			c-0.17-0.55-0.36-1.09-0.6-1.8c1.06,0.25,2.01,0.44,2.95,0.71c7.28,2.09,11.58,7.04,13.48,14.22c0.51,1.92,0.78,3.91,1.05,5.91
			c-4-2.93-6.56-7-9.29-10.95c1.48,5.01,4.11,9.25,8.37,12.45c-4.27-0.38-8.41-0.04-12.29,1.98c3.57-0.91,7.18-1.21,11-0.76
			c-1.68,1.73-3.53,2.96-5.74,3.63C41.41,41.63,37.76,40.83,34.13,39.31z"/>
		<linearGradient id="SVGID_22_" gradientUnits="userSpaceOnUse" x1="44.1822" y1="25.8981" x2="65.8705" y2="25.8981">
			<stop  offset="0" style="stop-color:#D29C35"/>
			<stop  offset="1" style="stop-color:#E8B223"/>
		</linearGradient>
		<path class="st22" d="M44.18,12.7c3.64-2.18,10.06-2.67,15.23,0.95c5.29,3.71,7.67,10.48,5.87,16.62
			c-1.94,6.6-7.53,9.99-11.57,10.53c-0.18-1.29-0.16-2.58,0.11-3.86c0.41-2.02,1.55-3.37,3.58-3.91c0.47-0.13,0.93-0.35,1.34-0.61
			c0.82-0.52,1-1.21,0.55-2.07c-0.19-0.36-0.46-0.68-0.69-1.02c-0.35-0.51-0.59-1.01-0.24-1.66c0.32-0.6-0.17-0.83-0.71-1.02
			c0.2-0.21,0.37-0.37,0.52-0.55c0.43-0.49,0.37-0.87-0.16-1.23c-1.03-0.7-1.06-0.85-0.42-1.9c0.07-0.12,0.15-0.25,0.22-0.38
			c0.39-0.76,0.09-1.22-0.75-1.28c-0.94-0.06-1.89-0.11-2.82-0.28c-0.52-0.1-0.99-0.44-1.42-0.64c0.23-0.67,0.42-1.21,0.6-1.75
			c-0.06-0.02-0.11-0.05-0.17-0.07c-0.29,0.26-0.56,0.56-0.87,0.79c-0.27,0.19-0.5,0.17-0.65-0.23c-0.63-1.72-1.82-2.86-3.59-3.39
			c-0.16-0.05-0.35-0.17-0.41-0.31c-0.65-1.55-1.82-2.4-3.46-2.64C44.24,12.76,44.21,12.72,44.18,12.7z"/>
	</g>
</g>
</svg>
